<?xml version="1.0" encoding="UTF-8"?>
<svg width="245px" height="260px" viewBox="0 0 245 260" version="1.1" xmlns="http://www.w3.org/2000/svg" xmlns:xlink="http://www.w3.org/1999/xlink" xmlns:sketch="http://www.bohemiancoding.com/sketch/ns">
    <!-- Generator: Sketch 3.4.2 (15855) - http://www.bohemiancoding.com/sketch -->
    <title>Group</title>
    <desc>Created with Sketch.</desc>
    <defs></defs>
    <g id="Page-1" stroke="none" stroke-width="1" fill="none" fill-rule="evenodd" sketch:type="MSPage">
        <g id="Enonic-Academy" sketch:type="MSLayerGroup" transform="translate(-455.000000, 0.000000)">
            <g id="Page-1" sketch:type="MSShapeGroup">
                <g>
                    <g id="A4">
                        <g id="White-background">
                            <g id="Enonic-Academy">
                                <g id="Group" transform="translate(455.000000, 0.000000)">
                                    <path d="M121.5,154 L140,192 L103,192 L121.5,154 Z" id="Triangle" fill="#F6A623" transform="translate(121.500000, 173.000000) scale(1, -1) translate(-121.500000, -173.000000) "></path>
                                    <path d="M14.4239211,152.145518 C19.2616535,212.603552 64.906318,260 120.5,260 C175.117775,260 220.132763,214.252967 226.283753,155.317149 L226.283753,155.317149 C229.315343,148.496721 231,140.945097 231,133 C231,120.928509 227.111027,109.765336 220.517611,100.695008 C205.571425,55.3528633 166.431317,23 120.5,23 C73.6483397,23 33.8627715,56.6623857 19.6132237,103.43611 C14.1603225,111.974111 11,122.117989 11,133 C11,139.732917 12.2098168,146.183266 14.4239211,152.145518 L14.4239211,152.145518 L14.4239211,152.145518 Z M39.6413518,181.284178 C53.4394707,215.620451 84.4529571,239.552326 120.5,239.552326 C156.310195,239.552326 187.152763,215.933907 201.08444,181.959646 L201.084443,181.959645 C193.563121,185.820942 185.036033,188 176,188 C145.624339,188 121,163.375661 121,133 C121,102.624339 145.624339,78 176,78 C180.638519,78 185.142924,78.5742114 189.44601,79.6554291 C173.223751,57.301553 148.365888,43 120.5,43 C92.4989529,43 67.5351815,57.4406246 51.3185493,79.9812693 C55.9922176,78.6899269 60.9155383,78 66,78 C96.3756612,78 121,102.624339 121,133 C121,163.375661 96.3756612,188 66,188 C56.4497449,188 47.4680104,185.565874 39.6413518,181.284178 L39.6413518,181.284178 L39.6413518,181.284178 Z M176,174 C198.09139,174 216,156.09139 216,134 C216,111.90861 198.09139,94 176,94 C153.90861,94 136,111.90861 136,134 C136,156.09139 153.90861,174 176,174 L176,174 Z M66,173 C88.09139,173 106,155.09139 106,133 C106,110.90861 88.09139,93 66,93 C43.90861,93 26,110.90861 26,133 C26,155.09139 43.90861,173 66,173 L66,173 Z" id="Oval-5" fill="#000000"></path>
                                    <circle id="Path-Copy-2" fill="#E7F2F5" cx="176" cy="134" r="40"></circle>
                                    <circle id="Path-Copy" fill="#E7F2F5" cx="66" cy="133" r="40"></circle>
                                    <circle id="Oval-7" fill="#000000" cx="85.5" cy="138.5" r="12.5"></circle>
                                    <circle id="Oval-7-Copy" fill="#000000" cx="157.5" cy="138.5" r="12.5"></circle>
                                    <path d="M122,129 L131,154 L113,154 L122,129 Z" id="Triangle-2" fill="#000000"></path>
                                    <path d="M212.5,80 L245,105 L180,105 L212.5,80 Z" id="Triangle-5" fill="#000000" transform="translate(212.500000, 92.500000) rotate(180.000000) translate(-212.500000, -92.500000) "></path>
                                    <path d="M32.5,80 L65,105 L0,105 L32.5,80 Z" id="Triangle-5-Copy" fill="#000000" transform="translate(32.500000, 92.500000) rotate(-0.000000) translate(-32.500000, -92.500000) "></path>
                                    <path d="M90.8058894,15 L153.393029,15 L161.5,53 L81.5,53 L90.8058894,15 L90.8058894,15 Z" id="Rectangle-1" fill="#000000"></path>
                                    <rect id="Rectangle-2" fill="#000000" transform="translate(121.000000, 13.000000) rotate(185.000000) translate(-121.000000, -13.000000) " x="39" y="8" width="164" height="10"></rect>
                                </g>
                            </g>
                        </g>
                    </g>
                </g>
            </g>
        </g>
    </g>
</svg>